<svg width="20" height="21" viewBox="0 0 20 21" fill="none" xmlns="http://www.w3.org/2000/svg">
<path d="M4 1L1 4.78618V18.0378C1 18.5399 1.21071 19.0214 1.58579 19.3764C1.96086 19.7315 2.46957 19.9309 3 19.9309H17C17.5304 19.9309 18.0391 19.7315 18.4142 19.3764C18.7893 19.0214 19 18.5399 19 18.0378V4.78618L16 1H4Z" stroke="black" stroke-width="2" stroke-linecap="round" stroke-linejoin="round"/>
<path d="M1 4.78618H19" stroke="black" stroke-width="2" stroke-linecap="round" stroke-linejoin="round"/>
<path d="M14 8.57237C14 9.57653 13.5786 10.5396 12.8284 11.2496C12.0783 11.9597 11.0609 12.3586 10 12.3586C8.93913 12.3586 7.92172 11.9597 7.17157 11.2496C6.42143 10.5396 6 9.57653 6 8.57237" stroke="black" stroke-width="2" stroke-linecap="round" stroke-linejoin="round"/>
</svg>
