<svg width="22" height="24" viewBox="0 0 22 24" fill="none" xmlns="http://www.w3.org/2000/svg">
<path d="M17.6667 7.31031C17.6667 5.63671 16.9643 4.03166 15.714 2.84825C14.4638 1.66483 12.7681 1 11 1C9.23189 1 7.5362 1.66483 6.28596 2.84825C5.03571 4.03166 4.33333 5.63671 4.33333 7.31031C4.33333 14.6723 1 16.7758 1 16.7758H21C21 16.7758 17.6667 14.6723 17.6667 7.31031Z" stroke="black" stroke-width="2" stroke-linecap="round" stroke-linejoin="round"/>
<path d="M12.9226 20.9826C12.7272 21.3014 12.4468 21.566 12.1095 21.7499C11.7721 21.9338 11.3897 22.0306 11.0003 22.0306C10.611 22.0306 10.2286 21.9338 9.89121 21.7499C9.55385 21.566 9.27347 21.3014 9.07812 20.9826" stroke="black" stroke-width="2" stroke-linecap="round" stroke-linejoin="round"/>
</svg>
